<svg version="1.1" id="Layer_1" xmlns="http://www.w3.org/2000/svg" xmlns:xlink="http://www.w3.org/1999/xlink" x="0px" y="0px" viewBox="0 0 576 339.2" style="enable-background:new 0 0 576 339.2;" xml:space="preserve">
  <style type="text/css">
    .st0{fill:#1d428a;}
    .st1{fill:#C8102E;}
    .st2{fill:#1D428A;}
    .st3{fill:#ffffff;}
  </style>
  <g>
    <g>
      <path class="st0" d="M227.7,330.9h-38V8.3h58.7l39.3,266.1c-5.9-63.3-13.6-165.4-13.6-219.1v-47h38v322.6h-53.8L222.3,72.4 c3.2,57.8,5.4,127,5.4,165.8V330.9z"></path>
      <path class="st0" d="M377.2,190.8v99.4h7.2c13.6,0,17.6-7.7,17.6-23v-54.7c0-15.8-5-21.7-19.4-21.7H377.2z M377.2,48.9v106.6h5.4 c15.4,0,19.4-5.9,19.4-23.5V70.6c0-14.9-4.5-21.7-17.6-21.7H377.2z M333.9,330.9V8.3h53.8c35.7,0,57.8,19.4,57.8,64.6v47.4 c0,29.4-9,44.3-21.7,52c12.6,8.1,21.7,22.6,21.7,47.4v47c0,44.3-23.5,64.2-57.8,64.2H333.9z"></path>
      <path class="st0" d="M501.4,233.7h23l-3.6-59.2c-1.4-23.5-5-98-7.7-138.3h-1.8l-6.3,138.3L501.4,233.7z M526.7,270.3h-27.1 l-3.6,60.5h-43.8L483.8,8.3h61.5L576,330.9h-45.6L526.7,270.3z"></path>
    </g>
    <g>
      <path class="st3" d="M114.5,0H35.1C15.7,0,0,15.8,0,35.1V304c0,19.4,15.7,35.2,35.1,35.2h79.4c19.4,0,35.2-15.8,35.2-35.2V35.1 C149.7,15.8,133.9,0,114.5,0"></path>
      <g>
        <g>
          <path class="st1" d="M94.8,62.2l0.1,1.1c2.4,1.4,3.6,2.6,6.1,4.1c6.5,4.1,14.5,11.3,13.4,36.3c1.8,5.4,2.6,16.1,4.3,19.6 c3.4,6.7,5.6,11,6.6,17.4c0,0,1,9.8,2.2,10.5c6.7,1.5,4.8,2.2,5.7,3.3c1,1.3,4.9,1.3,4.9,4.9c1.3,1.8,2.3,3.7,3.1,5.6V35.1 c0-14.8-12-26.8-26.8-26.8H88.9c4.1,1.5,6.4,3.2,7.8,5.9c3.3,0.3,7.3,7.7,1.1,18.7c2.7,1.8,0.6,4.5-1.4,7.7 c-0.6,1-1.2,2.8-3,2.7c-2.3,4.9-5.1,9.7-7.3,10C85.5,54,85,56.1,86,57.1C89.1,58.5,92.9,60.4,94.8,62.2"></path>
          <path class="st1" d="M141.3,182.6c-3.5,8.8-12.1,15.1-22.3,15.1c-13.3,0-23.9-10.7-23.9-23.9c0-11.3,7.8-20.7,18.3-23.3 c-2.8-6.9-8.6-18.1-10.3-21.8c-1.6-3.6-5.6-26.4-6.4-30.9c-0.2-1-10.3,5.9-10.3,6.3c-0.6,0.6-7.6,18.9-7.9,19.9 c-0.1,0.6-0.2,3.1-0.2,3.1s3.4,0.4,5.4,6.4c2,6,7.9,27.9,7.9,27.9S90,163.1,90,163c7.6,25.3,4.9,36.2,8.3,43.6 c4.3,10.5,5.4,9.1,9.1,17.9c2.6,6.4,5.5,31.6,6.5,32.7c4.1,5.2,6.3,9.2,6.3,12.1c0,2.9-3.5,11.6-2.2,16.7 c0.8,3,1.2,9.6,2.5,10.9c0,0,1.3,2.5,0.6,3.6c-0.2,0.4-0.5,1-0.4,1.4c2.3,7.9,9.5,21.5-2.3,28.6h0.3c12.8-2,22.6-13,22.6-26.5 V182.6z"></path>
        </g>
        <path class="st2" d="M111.1,298.9c-4.3-3.8-1.4-5.5-1.6-7c-2.8-11.7-12.2-18.9-7.3-22.7c-1.2-3.9-3.6-8.7-3.5-8.7 c-14.5-8.3-26.9-21.9-29-23.9c-2.6-2.8-6.9-5.6-7.7-7.8c-3.5-3.2-20.6-27.5-24.6-36.5l-7-1c-3.2-12.9-13.7-23.8-14-36.7 c-0.1-4.9,2.2-15.4,3.1-17.5c0.8-2.1,4.9-5.6,4.9-5.6v-3.5c-15.2,0.4-10.8-1.1-13.4-7c-1.8-4.1-0.5-5,0.1-7.8 c2-8.4,8.8-21.3,11.6-27.1c0.9-3,3.8-10.1,3.8-10.1c11.3-23,15.5-21.3,29-22.6l0.7-1c13.5-0.6,11.3-1.6,13.2-14.6 c-2,0.8-2.5-4.1-2.5-4.1c-1.1-7.4,2-6,3.5-6.1c0.3-12.1,1.6-15.9,10.3-19.3H35.1c-14.8,0-26.8,12-26.8,26.8V304 c0,14.8,12,26.9,26.8,26.9h79.4C105.4,326,110.8,316.6,111.1,298.9z"></path>
      </g>
    </g>
  </g>
</svg>